<svg width="373" height="310" viewBox="0 0 373 310" fill="none" xmlns="http://www.w3.org/2000/svg">
<rect width="157.039" height="32.8068" transform="matrix(0.866025 0.5 -2.20305e-08 1 0.617615 197.933)" fill="#838383"/>
<rect width="157.039" height="70.3366" transform="matrix(0.866025 0.5 -2.20305e-08 1 218.618 10.9313)" fill="#838383"/>
<rect width="252.413" height="157.795" transform="matrix(0.866025 -0.5 0.866025 0.5 0 198.281)" fill="#949494"/>
<rect width="21.4839" height="157.795" transform="matrix(0.866025 -0.5 0.866025 0.5 217.618 10.742)" fill="#949494"/>
<path d="M12.3929 169.834L222.618 48.4612L346.879 120.203L136.654 241.577L12.3929 169.834Z" fill="white"/>
<path d="M33 157.337L151.007 89.2061L261.512 153.006L143.505 221.138L33 157.337Z" fill="#E1AFD1"/>
<path d="M144 220.537L261 152.987L261 161.59L144 229.14L144 220.537Z" fill="#CFA1C0"/>
<path d="M33 156.646L144 220.732L144 229.466L33 165.38L33 156.646Z" fill="#D7A7C8"/>
<path d="M219 88.5386L238.985 77L277.276 99.1072L257.291 110.646L219 88.5386Z" fill="#C8AFE1"/>
<path d="M257.15 110.411L277.15 98.8643L277.15 107.468L257.15 119.015L257.15 110.411Z" fill="#B5A1CF"/>
<path d="M219.15 88.3285L257.15 110.268L257.15 119.002L219.15 97.0623L219.15 88.3285Z" fill="#C2A7D7"/>
<rect width="251.725" height="32.2701" transform="matrix(0.866025 -0.5 2.20305e-08 1 136.618 276.921)" fill="#707070"/>
<rect width="21.2262" height="94.2395" transform="matrix(0.866025 -0.5 2.20305e-08 1 354.618 89.0483)" fill="#707070"/>
<rect width="242.487" height="26.7314" transform="matrix(0.866025 -0.5 2.20305e-08 1 136.618 240.428)" fill="#F5F5F5"/>
<rect width="143.183" height="26.3415" transform="matrix(0.866025 0.5 -2.20305e-08 1 12.6176 169.305)" fill="white"/>
</svg>
