<svg width="351" height="206" viewBox="0 0 351 206" fill="none" xmlns="http://www.w3.org/2000/svg">
<ellipse cx="120.542" cy="81.6256" rx="120.542" ry="81.6256" transform="matrix(0.866025 0.5 -0.866025 0.5 141.38 3)" fill="#EAC0C0"/>
<ellipse cx="120.542" cy="81.6256" rx="120.542" ry="81.6256" transform="matrix(0.866025 0.5 -0.866025 0.5 141.38 3)" fill="#EAC0C0"/>
<ellipse cx="120.542" cy="81.6256" rx="120.542" ry="81.6256" transform="matrix(0.866025 0.5 -0.866025 0.5 141.38 3)" fill="#EAC0C0"/>
<ellipse cx="120.542" cy="81.6256" rx="120.542" ry="81.6256" transform="matrix(0.866025 0.5 -0.866025 0.5 141.38 3)" fill="#EAC0C0"/>
<ellipse cx="120.542" cy="81.6256" rx="120.542" ry="81.6256" transform="matrix(0.866025 0.5 -0.866025 0.5 141.38 0)" fill="#EAC0C0"/>
<ellipse cx="120.542" cy="81.6256" rx="120.542" ry="81.6256" transform="matrix(0.866025 0.5 -0.866025 0.5 141.38 0)" fill="#EAC0C0"/>
<ellipse cx="120.542" cy="81.6256" rx="120.542" ry="81.6256" transform="matrix(0.866025 0.5 -0.866025 0.5 141.38 0)" fill="#EAC0C0"/>
<ellipse cx="120.542" cy="81.6256" rx="120.542" ry="81.6256" transform="matrix(0.866025 0.5 -0.866025 0.5 141.38 0)" fill="#FFD5D5"/>
</svg>
