<svg width="86" height="120" viewBox="0 0 86 120" fill="none" xmlns="http://www.w3.org/2000/svg">
<rect width="4.6188" height="37.0995" transform="matrix(0.866025 0.5 -2.20305e-08 1 78.426 53.1061)" fill="#838383"/>
<rect width="54.9611" height="43.6099" transform="matrix(0.866025 -0.5 0.866025 0.5 0.58551 60.5569)" fill="#949494"/>
<rect width="3.4641" height="36.696" transform="matrix(0.866025 -0.5 2.20305e-08 1 38.426 82.3408)" fill="#707070"/>
<ellipse cx="20.4573" cy="19.9573" rx="20.4573" ry="19.9573" transform="matrix(0.866025 0.5 -0.866025 0.5 46.993 34.9374)" fill="#BBCA91"/>
<ellipse cx="20.4573" cy="19.9573" rx="20.4573" ry="19.9573" transform="matrix(0.866025 0.5 -0.866025 0.5 46.993 30.4801)" fill="#E0F19A"/>
<rect width="4.6188" height="37.2682" transform="matrix(0.866025 0.5 -2.20305e-08 1 34.426 79.5673)" fill="#838383"/>
<rect width="3.4641" height="35.4599" transform="matrix(0.866025 -0.5 2.20305e-08 1 82.426 56.947)" fill="#707070"/>
<rect width="4.6188" height="37.0995" transform="matrix(0.866025 0.5 -2.20305e-08 1 0.425964 60.9374)" fill="#838383"/>
<rect width="3.4641" height="35.4599" transform="matrix(0.866025 -0.5 2.20305e-08 1 4.42596 64.7783)" fill="#707070"/>
<rect width="43.8786" height="61.5115" transform="matrix(0.866025 0.5 -2.20305e-08 1 0.425964 1.47328)" fill="#838383"/>
<rect width="3.4641" height="60.6395" transform="matrix(0.866025 -0.5 2.20305e-08 1 38.426 23.6694)" fill="#707070"/>
<rect width="3.67519" height="44.0164" transform="matrix(0.866025 -0.5 0.866025 0.5 0 1.8376)" fill="#949494"/>
</svg>
