<svg width="197" height="171" viewBox="0 0 197 171" fill="none" xmlns="http://www.w3.org/2000/svg">
<rect width="2.3094" height="60.1727" transform="matrix(0.866025 0.5 -2.20305e-08 1 144 108.999)" fill="#838383"/>
<rect width="50.8068" height="67.5859" transform="matrix(0.866025 -0.5 2.20305e-08 1 146 102.403)" fill="#707070"/>
<rect width="2.3094" height="60.1727" transform="matrix(0.866025 0.5 -2.20305e-08 1 18 34.9991)" fill="#838383"/>
<rect width="50.8068" height="67.5859" transform="matrix(0.866025 -0.5 2.20305e-08 1 20 28.4034)" fill="#707070"/>
<rect width="69.0085" height="157.795" transform="matrix(0.866025 -0.5 0.866025 0.5 0 34.5042)" fill="#FFAF65"/>
<rect width="157.039" height="5.1623" transform="matrix(0.866025 0.5 -2.20305e-08 1 0 34.5042)" fill="#EDA35E"/>
<rect width="69.0085" height="5.58644" transform="matrix(0.866025 -0.5 2.20305e-08 1 136 112.504)" fill="#E59D5B"/>
</svg>
