<svg width="459" height="612" viewBox="0 0 459 612" fill="none" xmlns="http://www.w3.org/2000/svg">
<rect width="500" height="28.0515" transform="matrix(0.866025 -0.5 0.866025 0.5 1 474)" fill="#FFE6E6"/>
<rect width="27.7128" height="123.378" transform="matrix(0.866025 0.5 -2.20305e-08 1 1 474.132)" fill="#AD88C6"/>
<rect width="27.7128" height="199.049" transform="matrix(0.866025 0.5 -2.20305e-08 1 397 46.3299)" fill="#AD88C6"/>
<rect width="458.416" height="194.706" transform="matrix(0.866025 -0.5 2.20305e-08 1 15 286.447)" fill="#C7DAFF" fill-opacity="0.8"/>
<rect width="500" height="30.8121" transform="matrix(0.866025 -0.5 -2.20305e-08 -1 25 294.439)" fill="#A585BB"/>
<rect width="500" height="122.247" transform="matrix(0.866025 -0.5 -2.20305e-08 -1 25 610.289)" fill="#A585BB"/>
<rect width="41.5692" height="197.349" transform="matrix(0.866025 -0.5 -2.20305e-08 -1 421 261.605)" fill="#A585BB"/>
<rect width="27.7128" height="30.5024" transform="matrix(0.866025 0.5 -2.20305e-08 1 1 250.351)" fill="#AD88C6"/>
<rect width="500" height="26.8416" transform="matrix(0.866025 -0.5 0.866025 0.5 0.958405 250.69)" fill="#FFE6E6"/>
</svg>
